<svg xmlns="http://www.w3.org/2000/svg" width="154" height="37" fill="none"><g clip-path="url(#a)"><path fill="#0F0F0F" d="M17.97 11.611.27.167V18.66h35.4V.167l-17.7 11.444Z"/><path fill="#A6A6A6" d="m17.97 36.167 17.7-17.507-17.7-7.049-17.7 7.05 17.7 17.506Z"/><path fill="#0F0F0F" d="m14.086 32.325 3.883 3.842 3.883-3.842-3.883-3.866-3.883 3.866Z"/><path fill="#333" d="m.27 18.66 17.7-7.049 17.7 7.05-17.7 9.798L.27 18.66Z"/><path fill="#0F0F0F" d="M42.504 27.878V9.132h10.875l-.434 2.9H46.48v5.31h5.624v2.895H46.48v7.641h-3.976ZM69.788 9.851a7.392 7.392 0 0 1 2.867 3.347 14.464 14.464 0 0 1 0 10.598 7.48 7.48 0 0 1-2.867 3.346 8.208 8.208 0 0 1-4.455 1.171 8.373 8.373 0 0 1-4.455-1.149 7.425 7.425 0 0 1-2.884-3.346 12.849 12.849 0 0 1-1.013-5.31c-.047-1.8.3-3.59 1.013-5.243a7.61 7.61 0 0 1 2.896-3.391 8.13 8.13 0 0 1 4.443-1.177 8.252 8.252 0 0 1 4.455 1.154Zm-7.529 3.453c-.694 1.082-1.04 2.817-1.04 5.204 0 2.387.35 4.12 1.052 5.198a3.452 3.452 0 0 0 3.062 1.629 3.424 3.424 0 0 0 3.085-1.612c.687-1.078 1.028-2.817 1.024-5.215-.003-2.398-.345-4.139-1.024-5.22a3.432 3.432 0 0 0-3.085-1.613 3.437 3.437 0 0 0-3.096 1.629h.022Zm24.713 4.468 5.463 10.106h-4.382l-3.486-7.424-3.436 7.424h-4.248l5.329-9.967-4.895-8.78h4.355l2.945 6.259 3.085-6.258h4.22l-4.95 8.64Zm24.462 10.106v-9.046h-8.876v9.074h-1.62V9.35h1.62v8.098h8.876V9.35h1.62v18.556l-1.62-.028Zm22.255-5.795a6.215 6.215 0 0 1-1.564 4.429c-1.047 1.116-2.554 1.673-4.522 1.673-1.967 0-3.476-.557-4.527-1.673a6.195 6.195 0 0 1-1.559-4.462V9.35h1.626v12.622c0 1.556.362 2.75 1.114 3.58.751.832 1.849 1.244 3.341 1.244 1.492 0 2.634-.418 3.341-1.26a5.312 5.312 0 0 0 1.08-3.564V9.35h1.67v12.733Zm18.989-2.693c.794.743 1.191 1.858 1.191 3.346 0 1.733-.586 3.025-1.759 3.876-1.173.852-2.805 1.276-4.895 1.272h-5.039V9.35h4.137c2.144 0 3.798.384 4.961 1.165a3.904 3.904 0 0 1 1.749 3.464 4.023 4.023 0 0 1-.936 2.789 4.145 4.145 0 0 1-2.472 1.327c1.134.086 2.21.54 3.063 1.294Zm-8.91-8.707v6.799h3.731a4.109 4.109 0 0 0 2.784-.91 3.127 3.127 0 0 0 1.053-2.504 2.843 2.843 0 0 0-1.231-2.599c-.82-.524-2.042-.786-3.664-.786h-2.673Zm8.431 12.053a3.578 3.578 0 0 0-1.231-2.979 5.099 5.099 0 0 0-3.263-.976h-3.898v7.748h3.436c3.304-.004 4.956-1.268 4.956-3.793Z"/></g><defs><clipPath id="a"><path fill="#fff" d="M0 .167h154v36H0z"/></clipPath></defs></svg>