<svg xmlns="http://www.w3.org/2000/svg" width="128" height="37" fill="none"><mask id="a" width="128" height="37" x="0" y="0" maskUnits="userSpaceOnUse" style="mask-type:luminance"><path fill="#fff" d="M127.844.5H.156v36h127.688V.5Z"/></mask><g fill="#0F0F0F" mask="url(#a)"><path d="M19.03 31.055a12.416 12.416 0 0 0 6.366-2.421l3.456 4.14a17.692 17.692 0 0 1-18.75 1.869A17.894 17.894 0 0 1 2.845 28a18.124 18.124 0 0 1-2.688-9.51c.002-3.36.935-6.654 2.695-9.507a17.894 17.894 0 0 1 7.264-6.635A17.69 17.69 0 0 1 28.863 4.23l-3.458 4.14a12.384 12.384 0 0 0-13.042-1.125 12.527 12.527 0 0 0-5.011 4.643A12.707 12.707 0 0 0 7.345 25.1a12.528 12.528 0 0 0 5.008 4.646 12.383 12.383 0 0 0 6.678 1.308Z"/><path d="m30.078 31.729-3.456-4.14h.005a12.572 12.572 0 0 0 2.85-4.147 12.673 12.673 0 0 0 0-9.887 12.573 12.573 0 0 0-2.85-4.146l3.46-4.14a18.001 18.001 0 0 1 4.241 6.01 18.145 18.145 0 0 1-.005 14.443 17.999 17.999 0 0 1-4.245 6.007ZM101.181 1.58v28.908h3.413V1.58h-3.413Z"/><path fill-rule="evenodd" d="M118.113 27.756c-3.649 0-6.434-2.02-7.101-5.584h16.439a10.3 10.3 0 0 0 .117-1.544c0-5.544-3.845-10.455-9.769-10.455-6.12 0-10.279 4.554-10.279 10.415 0 5.94 4.198 10.415 10.515 10.415 3.923 0 6.905-1.782 8.631-4.475l-2.903-1.663c-.981 1.623-2.943 2.89-5.65 2.89Zm-7.101-8.593c.549-3.446 3.099-5.742 6.787-5.742 2.943 0 5.728 1.821 6.317 5.742h-13.104Z" clip-rule="evenodd"/><path d="M90.153 31.003c-5.924 0-10.319-4.554-10.319-10.415 0-5.86 4.395-10.415 10.319-10.415 3.884 0 7.18 2.06 8.67 5.188l-2.863 1.663c-.981-2.099-3.178-3.485-5.807-3.485-3.923 0-6.905 3.05-6.905 7.05 0 3.96 2.982 7.008 6.905 7.008 2.668 0 4.826-1.386 5.924-3.445l2.904 1.703c-1.648 3.089-4.983 5.148-8.828 5.148ZM79.848 10.332c-2.472 0-4.865.91-6.12 3.682v-3.326h-3.414v19.8h3.413V19.994c0-4.673 3.178-6.178 6.12-6.059v-3.604ZM64.596 7.084a2.296 2.296 0 0 1-2.315-2.296c0-1.268 1.02-2.337 2.315-2.337 1.255 0 2.275 1.07 2.275 2.337a2.288 2.288 0 0 1-2.275 2.296Zm-1.728 23.404v-19.8h3.413v19.8h-3.413Zm-21.34-9.9c0 5.86 4.395 10.415 10.319 10.415 3.845 0 7.18-2.06 8.827-5.148l-2.903-1.703c-1.099 2.06-3.256 3.445-5.924 3.445-3.924 0-6.905-3.049-6.905-7.009 0-4 2.981-7.049 6.905-7.049 2.628 0 4.825 1.386 5.806 3.485l2.864-1.663c-1.49-3.129-4.786-5.188-8.67-5.188-5.925 0-10.319 4.554-10.319 10.415Z"/></g></svg>