<svg xmlns="http://www.w3.org/2000/svg" width="140" height="37" fill="none"><g fill="#0F0F0F" clip-path="url(#a)"><path d="M18.114 15.095a3.691 3.691 0 0 0-1.456.25c-.462.18-.882.452-1.232.798-.706.698-1.059 1.595-1.059 2.69 0 1.096.353 1.996 1.058 2.7a3.626 3.626 0 0 0 2.687 1.048c.5.015.998-.07 1.463-.25a3.67 3.67 0 0 0 1.24-.797c.713-.697 1.07-1.597 1.07-2.7 0-1.103-.357-2.003-1.07-2.7a3.676 3.676 0 0 0-1.241-.792 3.743 3.743 0 0 0-1.46-.247Z"/><path d="M18.607 7.133c-2.369 0-4.684.686-6.653 1.972a11.763 11.763 0 0 0-4.41 5.25 11.452 11.452 0 0 0-.681 6.76 11.62 11.62 0 0 0 3.277 5.992 12.064 12.064 0 0 0 6.13 3.201c2.323.452 4.73.22 6.919-.665a11.92 11.92 0 0 0 5.373-4.31 11.51 11.51 0 0 0 2.018-6.5 11.58 11.58 0 0 0-3.511-8.269 12.132 12.132 0 0 0-8.462-3.43Zm6.782 18.33h-3.5v-1.565c-1.047 1.292-2.521 1.937-4.42 1.936-1.81 0-3.362-.677-4.656-2.03-1.294-1.351-1.942-3.009-1.943-4.97 0-1.963.646-3.62 1.94-4.972 1.293-1.353 2.844-2.029 4.654-2.029 1.9 0 3.374.645 4.422 1.935v-1.564h3.5l.003 13.259Z"/><path d="M37.026 18.833c0-1.337-1.214-2.52-1.505-3.78-.3-1.292.26-2.88-.315-4.039-.575-1.16-2.21-1.739-3.038-2.758-.827-1.018-1.037-2.68-2.078-3.497-1.04-.817-2.745-.632-3.957-1.202-1.212-.571-2.107-1.98-3.428-2.276-1.29-.284-2.732.602-4.1.602-1.369 0-2.82-.886-4.1-.602-1.322.294-2.235 1.712-3.429 2.276-1.194.563-2.916.39-3.957 1.202-1.04.812-1.243 2.482-2.078 3.505-.834 1.022-2.452 1.57-3.037 2.757-.586 1.188-.015 2.747-.315 4.032-.291 1.26-1.505 2.443-1.505 3.78 0 1.338 1.214 2.52 1.505 3.78.3 1.293-.26 2.88.315 4.04.574 1.159 2.21 1.738 3.037 2.757.827 1.019 1.032 2.687 2.078 3.505 1.046.817 2.745.631 3.957 1.202 1.212.57 2.107 1.98 3.428 2.275 1.29.285 2.732-.601 4.1-.601 1.37 0 2.82.886 4.101.601 1.321-.293 2.235-1.713 3.428-2.275 1.194-.562 2.916-.39 3.957-1.202 1.041-.812 1.244-2.483 2.078-3.505.834-1.022 2.452-1.573 3.038-2.758.585-1.184.014-2.746.315-4.039.29-1.26 1.505-2.442 1.505-3.78Zm-18.421 12.42c-2.514 0-4.972-.728-7.062-2.093a12.486 12.486 0 0 1-4.681-5.574 12.156 12.156 0 0 1-.724-7.176 12.335 12.335 0 0 1 3.479-6.36 12.806 12.806 0 0 1 6.508-3.398 12.987 12.987 0 0 1 7.344.707 12.65 12.65 0 0 1 5.704 4.574 12.219 12.219 0 0 1 2.142 6.9 12.291 12.291 0 0 1-3.726 8.779 12.876 12.876 0 0 1-8.984 3.641Zm65.405-20.54c1.354 0 2.56.28 3.617.838 1.058.537 1.894 1.353 2.507 2.449.614 1.095.92 2.428.92 4v10.013H88.2v-9.61c0-1.696-.434-2.987-1.301-3.876-.846-.91-1.999-1.364-3.459-1.364-1.501 0-2.696.475-3.585 1.426-.888.93-1.332 2.284-1.332 4.061v9.363h-2.856v-9.61c0-1.696-.434-2.987-1.3-3.876-.847-.91-2-1.364-3.46-1.364-1.501 0-2.696.475-3.585 1.426-.888.93-1.332 2.284-1.332 4.061v9.363h-2.887v-16.99h2.887v2.45a5.683 5.683 0 0 1 2.284-2.046c.973-.476 2.041-.714 3.205-.714 1.46 0 2.75.32 3.87.962 1.122.64 1.957 1.58 2.507 2.82a5.608 5.608 0 0 1 2.412-2.79c1.12-.66 2.369-.992 3.744-.992Zm32.303 3.07a5.496 5.496 0 0 1 2.158-2.263c.951-.538 2.104-.807 3.458-.807v2.915h-.762c-3.236 0-4.854 1.715-4.854 5.146v9.24h-2.887v-16.99h2.887v2.759Z"/><path fill-rule="evenodd" d="M122.277 19.457c0-1.737.36-3.256 1.079-4.558.719-1.323 1.703-2.346 2.951-3.07 1.269-.723 2.676-1.084 4.22-1.084 1.523 0 2.845.32 3.966.96 1.121.642 1.956 1.447 2.506 2.419v-3.1h2.919v16.99h-2.919V24.85c-.571.992-1.427 1.819-2.57 2.48-1.121.641-2.432.961-3.934.961-1.544 0-2.94-.372-4.188-1.116-1.248-.744-2.232-1.787-2.951-3.131-.719-1.343-1.079-2.873-1.079-4.588Zm14.722.03c0-1.28-.264-2.397-.793-3.348-.529-.95-1.248-1.674-2.157-2.17-.889-.517-1.872-.775-2.951-.775s-2.063.248-2.951.744c-.888.496-1.597 1.22-2.126 2.17-.528.95-.793 2.067-.793 3.349 0 1.302.265 2.438.793 3.41.529.95 1.238 1.684 2.126 2.201.888.496 1.872.744 2.951.744s2.062-.248 2.951-.744a5.611 5.611 0 0 0 2.157-2.201c.529-.972.793-2.098.793-3.38Zm-43.116-4.588c-.719 1.302-1.078 2.821-1.078 4.558 0 1.715.36 3.245 1.078 4.588.72 1.343 1.703 2.387 2.951 3.131 1.248.744 2.644 1.116 4.188 1.116 1.502 0 2.814-.32 3.935-.96 1.142-.662 1.999-1.489 2.57-2.48v3.161h2.919v-16.99h-2.919v3.101c-.55-.972-1.386-1.777-2.507-2.418-1.121-.641-2.443-.961-3.966-.961-1.544 0-2.95.361-4.22 1.085-1.248.723-2.231 1.746-2.95 3.069Zm12.85 1.24c.529.951.794 2.067.794 3.349 0 1.28-.265 2.407-.794 3.379a5.604 5.604 0 0 1-2.157 2.201c-.889.496-1.872.744-2.951.744s-2.062-.248-2.95-.744c-.89-.517-1.597-1.25-2.126-2.201-.53-.972-.794-2.108-.794-3.41 0-1.282.265-2.398.794-3.349.528-.95 1.237-1.674 2.125-2.17.889-.496 1.872-.744 2.951-.744s2.062.258 2.951.775c.909.496 1.629 1.22 2.157 2.17Zm-63.17-1.24c-.719 1.302-1.079 2.821-1.079 4.558 0 1.715.36 3.245 1.08 4.588.718 1.343 1.702 2.387 2.95 3.131 1.248.744 2.644 1.116 4.188 1.116 1.502 0 2.813-.32 3.934-.96 1.143-.662 2-1.489 2.57-2.48v3.161h2.92v-16.99h-2.92v3.101c-.55-.972-1.385-1.777-2.506-2.418-1.121-.641-2.443-.961-3.966-.961-1.544 0-2.951.361-4.22 1.085-1.248.723-2.232 1.746-2.95 3.069Zm12.85 1.24c.529.951.793 2.067.793 3.349 0 1.28-.264 2.407-.793 3.379a5.606 5.606 0 0 1-2.157 2.201c-.889.496-1.872.744-2.951.744s-2.063-.248-2.95-.744c-.89-.517-1.598-1.25-2.127-2.201-.528-.972-.793-2.108-.793-3.41 0-1.282.265-2.398.793-3.349.53-.95 1.238-1.674 2.126-2.17.889-.496 1.872-.744 2.95-.744 1.08 0 2.063.258 2.952.775.91.496 1.628 1.22 2.157 2.17Z" clip-rule="evenodd"/></g><defs><clipPath id="a"><path fill="#fff" d="M0 .833h140v36H0z"/></clipPath></defs></svg>