<svg preserveAspectRatio="none" width="100%" height="100%" overflow="visible" style="display: block;" viewBox="0 0 1920 1540" fill="none" xmlns="http://www.w3.org/2000/svg">
  <path id="Union" d="M1840 0C1884.18 8.37647e-06 1920 35.8172 1920 80V1378C1920 1422.18 1884.18 1458 1840 1458H909.895C893.682 1458 877.851 1462.93 864.501 1472.12L786.499 1525.88C773.149 1535.07 757.318 1540 741.105 1540H80C35.8172 1540 0 1504.18 0 1460V162C0 117.817 35.8172 82 80 82H1010.11C1026.32 82 1042.15 77.0742 1055.5 67.875L1133.5 14.125C1146.85 4.92579 1162.68 0 1178.89 0H1840Z" fill="var(--fill-0, #030404)"/>
</svg>
