<svg preserveAspectRatio="none" width="100%" height="100%" overflow="visible" style="display: block;" viewBox="0 0 1920 1060" fill="none" xmlns="http://www.w3.org/2000/svg">
  <path id="Union" d="M1840 0C1884.18 8.37647e-06 1920 35.8172 1920 80V898C1920 942.183 1884.18 978 1840 978H909.895C893.682 978 877.851 982.926 864.501 992.125L786.499 1045.88C773.149 1055.07 757.318 1060 741.105 1060H80C35.8172 1060 0 1024.18 0 980V162C0 117.817 35.8172 82 80 82H1010.11C1026.32 82 1042.15 77.0742 1055.5 67.875L1133.5 14.125C1146.85 4.92579 1162.68 0 1178.89 0H1840Z" fill="var(--fill-0, #030404)"/>
</svg>
