<svg preserveAspectRatio="none" width="100%" height="100%" overflow="visible" style="display: block;" viewBox="0 0 1920 1060" fill="none" xmlns="http://www.w3.org/2000/svg">
<g id="Mask group">
<mask id="mask0_3317_13189" style="mask-type:alpha" maskUnits="userSpaceOnUse" x="0" y="0" width="1920" height="1060">
<path id="Union" d="M80 0C35.8172 8.37647e-06 0 35.8172 0 80V898C0 942.183 35.8172 978 80 978H1010.11C1026.32 978 1042.15 982.926 1055.5 992.125L1133.5 1045.88C1146.85 1055.07 1162.68 1060 1178.89 1060H1840C1884.18 1060 1920 1024.18 1920 980V162C1920 117.817 1884.18 82 1840 82H909.895C893.682 82 877.851 77.0742 864.501 67.875L786.499 14.125C773.149 4.92579 757.318 0 741.105 0H80Z" fill="var(--fill-0, #030404)"/>
</mask>
<g mask="url(#mask0_3317_13189)">
<g id="Group 237675" opacity="0.13">
<path id="Rectangle 986" d="M-86.7305 -21.5H45.2939C53.0104 -21.5 59.1567 -15.0431 58.7773 -7.33594L50.2139 166.664C49.8598 173.853 43.9282 179.5 36.7305 179.5H-95.2939C-103.01 179.5 -109.157 173.043 -108.777 165.336L-100.214 -8.66406C-99.8598 -15.853 -93.9282 -21.5 -86.7305 -21.5Z" fill="var(--fill-0, white)" fill-opacity="0.01" stroke="var(--stroke-0, #6A6A6A)"/>
<path id="Rectangle 999" d="M-97.7305 179.5H34.2939C42.0104 179.5 48.1567 185.957 47.7773 193.664L39.2139 367.664C38.8598 374.853 32.9282 380.5 25.7305 380.5H-106.294C-114.01 380.5 -120.157 374.043 -119.777 366.336L-111.214 192.336C-110.86 185.147 -104.928 179.5 -97.7305 179.5Z" fill="var(--fill-0, white)" fill-opacity="0.01" stroke="var(--stroke-0, #6A6A6A)"/>
<path id="Rectangle 1012" d="M-108.73 380.5H23.2939C31.0104 380.5 37.1567 386.957 36.7773 394.664L28.2139 568.664C27.8598 575.853 21.9282 581.5 14.7305 581.5H-117.294C-125.01 581.5 -131.157 575.043 -130.777 567.336L-122.214 393.336C-121.86 386.147 -115.928 380.5 -108.73 380.5Z" fill="var(--fill-0, white)" fill-opacity="0.01" stroke="var(--stroke-0, #6A6A6A)"/>
<path id="Rectangle 1025" d="M-119.73 581.5H12.2939C20.0104 581.5 26.1567 587.957 25.7773 595.664L17.2139 769.664C16.8598 776.853 10.9282 782.5 3.73047 782.5H-128.294C-136.01 782.5 -142.157 776.043 -141.777 768.336L-133.214 594.336C-132.86 587.147 -126.928 581.5 -119.73 581.5Z" fill="var(--fill-0, white)" fill-opacity="0.01" stroke="var(--stroke-0, #6A6A6A)"/>
<path id="Rectangle 1038" d="M-130.73 782.5H1.29395C9.01039 782.5 15.1567 788.957 14.7773 796.664L6.21387 970.664C5.85982 977.853 -0.0717991 983.5 -7.26953 983.5H-139.294C-147.01 983.5 -153.157 977.043 -152.777 969.336L-144.214 795.336C-143.86 788.147 -137.928 782.5 -130.73 782.5Z" fill="var(--fill-0, white)" fill-opacity="0.01" stroke="var(--stroke-0, #6A6A6A)"/>
<path id="Rectangle 1051" d="M-141.73 983.5H-9.70605C-1.98961 983.5 4.15665 989.957 3.77734 997.664L-4.78613 1171.66C-5.14018 1178.85 -11.0718 1184.5 -18.2695 1184.5H-150.294C-158.01 1184.5 -164.157 1178.04 -163.777 1170.34L-155.214 996.336C-154.86 989.147 -148.928 983.5 -141.73 983.5Z" fill="var(--fill-0, white)" fill-opacity="0.01" stroke="var(--stroke-0, #6A6A6A)"/>
<path id="Rectangle 987" d="M72.2695 -21.5H204.294C212.01 -21.5 218.157 -15.0431 217.777 -7.33594L209.214 166.664C208.86 173.853 202.928 179.5 195.73 179.5H63.7061C55.9896 179.5 49.8433 173.043 50.2227 165.336L58.7861 -8.66406C59.1402 -15.853 65.0718 -21.5 72.2695 -21.5Z" fill="var(--fill-0, white)" fill-opacity="0.01" stroke="var(--stroke-0, #6A6A6A)"/>
<path id="Rectangle 1000" d="M61.2695 179.5H193.294C201.01 179.5 207.157 185.957 206.777 193.664L198.214 367.664C197.86 374.853 191.928 380.5 184.73 380.5H52.7061C44.9896 380.5 38.8433 374.043 39.2227 366.336L47.7861 192.336C48.1402 185.147 54.0718 179.5 61.2695 179.5Z" fill="var(--fill-0, white)" fill-opacity="0.01" stroke="var(--stroke-0, #6A6A6A)"/>
<path id="Rectangle 1013" d="M50.2695 380.5H182.294C190.01 380.5 196.157 386.957 195.777 394.664L187.214 568.664C186.86 575.853 180.928 581.5 173.73 581.5H41.7061C33.9896 581.5 27.8433 575.043 28.2227 567.336L36.7861 393.336C37.1402 386.147 43.0718 380.5 50.2695 380.5Z" fill="var(--fill-0, white)" fill-opacity="0.01" stroke="var(--stroke-0, #6A6A6A)"/>
<path id="Rectangle 1026" d="M39.2695 581.5H171.294C179.01 581.5 185.157 587.957 184.777 595.664L176.214 769.664C175.86 776.853 169.928 782.5 162.73 782.5H30.7061C22.9896 782.5 16.8433 776.043 17.2227 768.336L25.7861 594.336C26.1402 587.147 32.0718 581.5 39.2695 581.5Z" fill="var(--fill-0, white)" fill-opacity="0.01" stroke="var(--stroke-0, #6A6A6A)"/>
<path id="Rectangle 1039" d="M28.2695 782.5H160.294C168.01 782.5 174.157 788.957 173.777 796.664L165.214 970.664C164.86 977.853 158.928 983.5 151.73 983.5H19.7061C11.9896 983.5 5.84335 977.043 6.22266 969.336L14.7861 795.336C15.1402 788.147 21.0718 782.5 28.2695 782.5Z" fill="var(--fill-0, white)" fill-opacity="0.01" stroke="var(--stroke-0, #6A6A6A)"/>
<path id="Rectangle 1052" d="M17.2695 983.5H149.294C157.01 983.5 163.157 989.957 162.777 997.664L154.214 1171.66C153.86 1178.85 147.928 1184.5 140.73 1184.5H8.70605C0.989612 1184.5 -5.15665 1178.04 -4.77734 1170.34L3.78613 996.336C4.14018 989.147 10.0718 983.5 17.2695 983.5Z" fill="var(--fill-0, white)" fill-opacity="0.01" stroke="var(--stroke-0, #6A6A6A)"/>
<path id="Rectangle 988" d="M231.27 -21.5H363.294C371.01 -21.5 377.157 -15.0431 376.777 -7.33594L368.214 166.664C367.86 173.853 361.928 179.5 354.73 179.5H222.706C214.99 179.5 208.843 173.043 209.223 165.336L217.786 -8.66406C218.14 -15.853 224.072 -21.5 231.27 -21.5Z" fill="var(--fill-0, white)" fill-opacity="0.01" stroke="var(--stroke-0, #6A6A6A)"/>
<path id="Rectangle 1001" d="M220.27 179.5H352.294C360.01 179.5 366.157 185.957 365.777 193.664L357.214 367.664C356.86 374.853 350.928 380.5 343.73 380.5H211.706C203.99 380.5 197.843 374.043 198.223 366.336L206.786 192.336C207.14 185.147 213.072 179.5 220.27 179.5Z" fill="var(--fill-0, white)" fill-opacity="0.01" stroke="var(--stroke-0, #6A6A6A)"/>
<path id="Rectangle 1014" d="M209.27 380.5H341.294C349.01 380.5 355.157 386.957 354.777 394.664L346.214 568.664C345.86 575.853 339.928 581.5 332.73 581.5H200.706C192.99 581.5 186.843 575.043 187.223 567.336L195.786 393.336C196.14 386.147 202.072 380.5 209.27 380.5Z" fill="var(--fill-0, white)" fill-opacity="0.01" stroke="var(--stroke-0, #6A6A6A)"/>
<path id="Rectangle 1027" d="M198.27 581.5H330.294C338.01 581.5 344.157 587.957 343.777 595.664L335.214 769.664C334.86 776.853 328.928 782.5 321.73 782.5H189.706C181.99 782.5 175.843 776.043 176.223 768.336L184.786 594.336C185.14 587.147 191.072 581.5 198.27 581.5Z" fill="var(--fill-0, white)" fill-opacity="0.01" stroke="var(--stroke-0, #6A6A6A)"/>
<path id="Rectangle 1040" d="M187.27 782.5H319.294C327.01 782.5 333.157 788.957 332.777 796.664L324.214 970.664C323.86 977.853 317.928 983.5 310.73 983.5H178.706C170.99 983.5 164.843 977.043 165.223 969.336L173.786 795.336C174.14 788.147 180.072 782.5 187.27 782.5Z" fill="var(--fill-0, white)" fill-opacity="0.01" stroke="var(--stroke-0, #6A6A6A)"/>
<path id="Rectangle 1053" d="M176.27 983.5H308.294C316.01 983.5 322.157 989.957 321.777 997.664L313.214 1171.66C312.86 1178.85 306.928 1184.5 299.73 1184.5H167.706C159.99 1184.5 153.843 1178.04 154.223 1170.34L162.786 996.336C163.14 989.147 169.072 983.5 176.27 983.5Z" fill="var(--fill-0, white)" fill-opacity="0.01" stroke="var(--stroke-0, #6A6A6A)"/>
<path id="Rectangle 989" d="M390.27 -21.5H522.294C530.01 -21.5 536.157 -15.0431 535.777 -7.33594L527.214 166.664C526.86 173.853 520.928 179.5 513.73 179.5H381.706C373.99 179.5 367.843 173.043 368.223 165.336L376.786 -8.66406C377.14 -15.853 383.072 -21.5 390.27 -21.5Z" fill="var(--fill-0, white)" fill-opacity="0.01" stroke="var(--stroke-0, #6A6A6A)"/>
<path id="Rectangle 1002" d="M379.27 179.5H511.294C519.01 179.5 525.157 185.957 524.777 193.664L516.214 367.664C515.86 374.853 509.928 380.5 502.73 380.5H370.706C362.99 380.5 356.843 374.043 357.223 366.336L365.786 192.336C366.14 185.147 372.072 179.5 379.27 179.5Z" fill="var(--fill-0, white)" fill-opacity="0.01" stroke="var(--stroke-0, #6A6A6A)"/>
<path id="Rectangle 1015" d="M368.27 380.5H500.294C508.01 380.5 514.157 386.957 513.777 394.664L505.214 568.664C504.86 575.853 498.928 581.5 491.73 581.5H359.706C351.99 581.5 345.843 575.043 346.223 567.336L354.786 393.336C355.14 386.147 361.072 380.5 368.27 380.5Z" fill="var(--fill-0, white)" fill-opacity="0.01" stroke="var(--stroke-0, #6A6A6A)"/>
<path id="Rectangle 1028" d="M357.27 581.5H489.294C497.01 581.5 503.157 587.957 502.777 595.664L494.214 769.664C493.86 776.853 487.928 782.5 480.73 782.5H348.706C340.99 782.5 334.843 776.043 335.223 768.336L343.786 594.336C344.14 587.147 350.072 581.5 357.27 581.5Z" fill="var(--fill-0, white)" fill-opacity="0.01" stroke="var(--stroke-0, #6A6A6A)"/>
<path id="Rectangle 1041" d="M346.27 782.5H478.294C486.01 782.5 492.157 788.957 491.777 796.664L483.214 970.664C482.86 977.853 476.928 983.5 469.73 983.5H337.706C329.99 983.5 323.843 977.043 324.223 969.336L332.786 795.336C333.14 788.147 339.072 782.5 346.27 782.5Z" fill="var(--fill-0, white)" fill-opacity="0.01" stroke="var(--stroke-0, #6A6A6A)"/>
<path id="Rectangle 1054" d="M335.27 983.5H467.294C475.01 983.5 481.157 989.957 480.777 997.664L472.214 1171.66C471.86 1178.85 465.928 1184.5 458.73 1184.5H326.706C318.99 1184.5 312.843 1178.04 313.223 1170.34L321.786 996.336C322.14 989.147 328.072 983.5 335.27 983.5Z" fill="var(--fill-0, white)" fill-opacity="0.01" stroke="var(--stroke-0, #6A6A6A)"/>
<path id="Rectangle 990" d="M549.27 -21.5H681.294C689.01 -21.5 695.157 -15.0431 694.777 -7.33594L686.214 166.664C685.86 173.853 679.928 179.5 672.73 179.5H540.706C532.99 179.5 526.843 173.043 527.223 165.336L535.786 -8.66406C536.14 -15.853 542.072 -21.5 549.27 -21.5Z" fill="var(--fill-0, white)" fill-opacity="0.4" stroke="var(--stroke-0, #6A6A6A)"/>
<path id="Rectangle 1003" d="M538.27 179.5H670.294C678.01 179.5 684.157 185.957 683.777 193.664L675.214 367.664C674.86 374.853 668.928 380.5 661.73 380.5H529.706C521.99 380.5 515.843 374.043 516.223 366.336L524.786 192.336C525.14 185.147 531.072 179.5 538.27 179.5Z" fill="var(--fill-0, white)" fill-opacity="0.01" stroke="var(--stroke-0, #6A6A6A)"/>
<path id="Rectangle 1016" d="M527.27 380.5H659.294C667.01 380.5 673.157 386.957 672.777 394.664L664.214 568.664C663.86 575.853 657.928 581.5 650.73 581.5H518.706C510.99 581.5 504.843 575.043 505.223 567.336L513.786 393.336C514.14 386.147 520.072 380.5 527.27 380.5Z" fill="var(--fill-0, white)" fill-opacity="0.01" stroke="var(--stroke-0, #6A6A6A)"/>
<path id="Rectangle 1029" d="M516.27 581.5H648.294C656.01 581.5 662.157 587.957 661.777 595.664L653.214 769.664C652.86 776.853 646.928 782.5 639.73 782.5H507.706C499.99 782.5 493.843 776.043 494.223 768.336L502.786 594.336C503.14 587.147 509.072 581.5 516.27 581.5Z" fill="var(--fill-0, white)" fill-opacity="0.01" stroke="var(--stroke-0, #6A6A6A)"/>
<path id="Rectangle 1042" d="M505.27 782.5H637.294C645.01 782.5 651.157 788.957 650.777 796.664L642.214 970.664C641.86 977.853 635.928 983.5 628.73 983.5H496.706C488.99 983.5 482.843 977.043 483.223 969.336L491.786 795.336C492.14 788.147 498.072 782.5 505.27 782.5Z" fill="var(--fill-0, white)" fill-opacity="0.01" stroke="var(--stroke-0, #6A6A6A)"/>
<path id="Rectangle 1055" d="M494.27 983.5H626.294C634.01 983.5 640.157 989.957 639.777 997.664L631.214 1171.66C630.86 1178.85 624.928 1184.5 617.73 1184.5H485.706C477.99 1184.5 471.843 1178.04 472.223 1170.34L480.786 996.336C481.14 989.147 487.072 983.5 494.27 983.5Z" fill="var(--fill-0, white)" fill-opacity="0.01" stroke="var(--stroke-0, #6A6A6A)"/>
<path id="Rectangle 991" d="M708.27 -21.5H840.294C848.01 -21.5 854.157 -15.0431 853.777 -7.33594L845.214 166.664C844.86 173.853 838.928 179.5 831.73 179.5H699.706C691.99 179.5 685.843 173.043 686.223 165.336L694.786 -8.66406C695.14 -15.853 701.072 -21.5 708.27 -21.5Z" fill="var(--fill-0, white)" fill-opacity="0.01" stroke="var(--stroke-0, #6A6A6A)"/>
<path id="Rectangle 1004" d="M697.27 179.5H829.294C837.01 179.5 843.157 185.957 842.777 193.664L834.214 367.664C833.86 374.853 827.928 380.5 820.73 380.5H688.706C680.99 380.5 674.843 374.043 675.223 366.336L683.786 192.336C684.14 185.147 690.072 179.5 697.27 179.5Z" fill="var(--fill-0, white)" fill-opacity="0.4" stroke="var(--stroke-0, #6A6A6A)"/>
<path id="Rectangle 1017" d="M686.27 380.5H818.294C826.01 380.5 832.157 386.957 831.777 394.664L823.214 568.664C822.86 575.853 816.928 581.5 809.73 581.5H677.706C669.99 581.5 663.843 575.043 664.223 567.336L672.786 393.336C673.14 386.147 679.072 380.5 686.27 380.5Z" fill="var(--fill-0, white)" fill-opacity="0.01" stroke="var(--stroke-0, #6A6A6A)"/>
<path id="Rectangle 1030" d="M675.27 581.5H807.294C815.01 581.5 821.157 587.957 820.777 595.664L812.214 769.664C811.86 776.853 805.928 782.5 798.73 782.5H666.706C658.99 782.5 652.843 776.043 653.223 768.336L661.786 594.336C662.14 587.147 668.072 581.5 675.27 581.5Z" fill="var(--fill-0, white)" fill-opacity="0.01" stroke="var(--stroke-0, #6A6A6A)"/>
<path id="Rectangle 1043" d="M664.27 782.5H796.294C804.01 782.5 810.157 788.957 809.777 796.664L801.214 970.664C800.86 977.853 794.928 983.5 787.73 983.5H655.706C647.99 983.5 641.843 977.043 642.223 969.336L650.786 795.336C651.14 788.147 657.072 782.5 664.27 782.5Z" fill="var(--fill-0, white)" fill-opacity="0.01" stroke="var(--stroke-0, #6A6A6A)"/>
<path id="Rectangle 1056" d="M653.27 983.5H785.294C793.01 983.5 799.157 989.957 798.777 997.664L790.214 1171.66C789.86 1178.85 783.928 1184.5 776.73 1184.5H644.706C636.99 1184.5 630.843 1178.04 631.223 1170.34L639.786 996.336C640.14 989.147 646.072 983.5 653.27 983.5Z" fill="var(--fill-0, white)" fill-opacity="0.01" stroke="var(--stroke-0, #6A6A6A)"/>
<path id="Rectangle 992" d="M867.27 -21.5H999.294C1007.01 -21.5 1013.16 -15.0431 1012.78 -7.33594L1004.21 166.664C1003.86 173.853 997.928 179.5 990.73 179.5H858.706C850.99 179.5 844.843 173.043 845.223 165.336L853.786 -8.66406C854.14 -15.853 860.072 -21.5 867.27 -21.5Z" fill="var(--fill-0, white)" fill-opacity="0.01" stroke="var(--stroke-0, #6A6A6A)"/>
<path id="Rectangle 1005" d="M856.27 179.5H988.294C996.01 179.5 1002.16 185.957 1001.78 193.664L993.214 367.664C992.86 374.853 986.928 380.5 979.73 380.5H847.706C839.99 380.5 833.843 374.043 834.223 366.336L842.786 192.336C843.14 185.147 849.072 179.5 856.27 179.5Z" fill="var(--fill-0, white)" fill-opacity="0.01" stroke="var(--stroke-0, #6A6A6A)"/>
<path id="Rectangle 1018" d="M845.27 380.5H977.294C985.01 380.5 991.157 386.957 990.777 394.664L982.214 568.664C981.86 575.853 975.928 581.5 968.73 581.5H836.706C828.99 581.5 822.843 575.043 823.223 567.336L831.786 393.336C832.14 386.147 838.072 380.5 845.27 380.5Z" fill="var(--fill-0, white)" fill-opacity="0.01" stroke="var(--stroke-0, #6A6A6A)"/>
<path id="Rectangle 1031" d="M834.27 581.5H966.294C974.01 581.5 980.157 587.957 979.777 595.664L971.214 769.664C970.86 776.853 964.928 782.5 957.73 782.5H825.706C817.99 782.5 811.843 776.043 812.223 768.336L820.786 594.336C821.14 587.147 827.072 581.5 834.27 581.5Z" fill="var(--fill-0, white)" fill-opacity="0.01" stroke="var(--stroke-0, #6A6A6A)"/>
<path id="Rectangle 1044" d="M823.27 782.5H955.294C963.01 782.5 969.157 788.957 968.777 796.664L960.214 970.664C959.86 977.853 953.928 983.5 946.73 983.5H814.706C806.99 983.5 800.843 977.043 801.223 969.336L809.786 795.336C810.14 788.147 816.072 782.5 823.27 782.5Z" fill="var(--fill-0, white)" fill-opacity="0.01" stroke="var(--stroke-0, #6A6A6A)"/>
<path id="Rectangle 1057" d="M812.27 983.5H944.294C952.01 983.5 958.157 989.957 957.777 997.664L949.214 1171.66C948.86 1178.85 942.928 1184.5 935.73 1184.5H803.706C795.99 1184.5 789.843 1178.04 790.223 1170.34L798.786 996.336C799.14 989.147 805.072 983.5 812.27 983.5Z" fill="var(--fill-0, white)" fill-opacity="0.01" stroke="var(--stroke-0, #6A6A6A)"/>
<path id="Rectangle 993" d="M1026.27 -21.5H1158.29C1166.01 -21.5 1172.16 -15.0431 1171.78 -7.33594L1163.21 166.664C1162.86 173.853 1156.93 179.5 1149.73 179.5H1017.71C1009.99 179.5 1003.84 173.043 1004.22 165.336L1012.79 -8.66406C1013.14 -15.853 1019.07 -21.5 1026.27 -21.5Z" fill="var(--fill-0, white)" fill-opacity="0.01" stroke="var(--stroke-0, #6A6A6A)"/>
<path id="Rectangle 1006" d="M1015.27 179.5H1147.29C1155.01 179.5 1161.16 185.957 1160.78 193.664L1152.21 367.664C1151.86 374.853 1145.93 380.5 1138.73 380.5H1006.71C998.99 380.5 992.843 374.043 993.223 366.336L1001.79 192.336C1002.14 185.147 1008.07 179.5 1015.27 179.5Z" fill="var(--fill-0, white)" fill-opacity="0.01" stroke="var(--stroke-0, #6A6A6A)"/>
<path id="Rectangle 1019" d="M1004.27 380.5H1136.29C1144.01 380.5 1150.16 386.957 1149.78 394.664L1141.21 568.664C1140.86 575.853 1134.93 581.5 1127.73 581.5H995.706C987.99 581.5 981.843 575.043 982.223 567.336L990.786 393.336C991.14 386.147 997.072 380.5 1004.27 380.5Z" fill="var(--fill-0, white)" fill-opacity="0.01" stroke="var(--stroke-0, #6A6A6A)"/>
<path id="Rectangle 1032" d="M993.27 581.5H1125.29C1133.01 581.5 1139.16 587.957 1138.78 595.664L1130.21 769.664C1129.86 776.853 1123.93 782.5 1116.73 782.5H984.706C976.99 782.5 970.843 776.043 971.223 768.336L979.786 594.336C980.14 587.147 986.072 581.5 993.27 581.5Z" fill="var(--fill-0, white)" fill-opacity="0.01" stroke="var(--stroke-0, #6A6A6A)"/>
<path id="Rectangle 1045" d="M982.27 782.5H1114.29C1122.01 782.5 1128.16 788.957 1127.78 796.664L1119.21 970.664C1118.86 977.853 1112.93 983.5 1105.73 983.5H973.706C965.99 983.5 959.843 977.043 960.223 969.336L968.786 795.336C969.14 788.147 975.072 782.5 982.27 782.5Z" fill="var(--fill-0, white)" fill-opacity="0.01" stroke="var(--stroke-0, #6A6A6A)"/>
<path id="Rectangle 1058" d="M971.27 983.5H1103.29C1111.01 983.5 1117.16 989.957 1116.78 997.664L1108.21 1171.66C1107.86 1178.85 1101.93 1184.5 1094.73 1184.5H962.706C954.99 1184.5 948.843 1178.04 949.223 1170.34L957.786 996.336C958.14 989.147 964.072 983.5 971.27 983.5Z" fill="var(--fill-0, white)" fill-opacity="0.01" stroke="var(--stroke-0, #6A6A6A)"/>
<path id="Rectangle 994" d="M1185.27 -21.5H1317.29C1325.01 -21.5 1331.16 -15.0431 1330.78 -7.33594L1322.21 166.664C1321.86 173.853 1315.93 179.5 1308.73 179.5H1176.71C1168.99 179.5 1162.84 173.043 1163.22 165.336L1171.79 -8.66406C1172.14 -15.853 1178.07 -21.5 1185.27 -21.5Z" fill="var(--fill-0, white)" fill-opacity="0.4" stroke="var(--stroke-0, #6A6A6A)"/>
<path id="Rectangle 1007" d="M1174.27 179.5H1306.29C1314.01 179.5 1320.16 185.957 1319.78 193.664L1311.21 367.664C1310.86 374.853 1304.93 380.5 1297.73 380.5H1165.71C1157.99 380.5 1151.84 374.043 1152.22 366.336L1160.79 192.336C1161.14 185.147 1167.07 179.5 1174.27 179.5Z" fill="var(--fill-0, white)" fill-opacity="0.01" stroke="var(--stroke-0, #6A6A6A)"/>
<path id="Rectangle 1020" d="M1163.27 380.5H1295.29C1303.01 380.5 1309.16 386.957 1308.78 394.664L1300.21 568.664C1299.86 575.853 1293.93 581.5 1286.73 581.5H1154.71C1146.99 581.5 1140.84 575.043 1141.22 567.336L1149.79 393.336C1150.14 386.147 1156.07 380.5 1163.27 380.5Z" fill="var(--fill-0, white)" fill-opacity="0.4" stroke="var(--stroke-0, #6A6A6A)"/>
<path id="Rectangle 1033" d="M1152.27 581.5H1284.29C1292.01 581.5 1298.16 587.957 1297.78 595.664L1289.21 769.664C1288.86 776.853 1282.93 782.5 1275.73 782.5H1143.71C1135.99 782.5 1129.84 776.043 1130.22 768.336L1138.79 594.336C1139.14 587.147 1145.07 581.5 1152.27 581.5Z" fill="var(--fill-0, white)" fill-opacity="0.01" stroke="var(--stroke-0, #6A6A6A)"/>
<path id="Rectangle 1046" d="M1141.27 782.5H1273.29C1281.01 782.5 1287.16 788.957 1286.78 796.664L1278.21 970.664C1277.86 977.853 1271.93 983.5 1264.73 983.5H1132.71C1124.99 983.5 1118.84 977.043 1119.22 969.336L1127.79 795.336C1128.14 788.147 1134.07 782.5 1141.27 782.5Z" fill="var(--fill-0, white)" fill-opacity="0.01" stroke="var(--stroke-0, #6A6A6A)"/>
<path id="Rectangle 1059" d="M1130.27 983.5H1262.29C1270.01 983.5 1276.16 989.957 1275.78 997.664L1267.21 1171.66C1266.86 1178.85 1260.93 1184.5 1253.73 1184.5H1121.71C1113.99 1184.5 1107.84 1178.04 1108.22 1170.34L1116.79 996.336C1117.14 989.147 1123.07 983.5 1130.27 983.5Z" fill="var(--fill-0, white)" fill-opacity="0.01" stroke="var(--stroke-0, #6A6A6A)"/>
<path id="Rectangle 995" d="M1344.27 -21.5H1476.29C1484.01 -21.5 1490.16 -15.0431 1489.78 -7.33594L1481.21 166.664C1480.86 173.853 1474.93 179.5 1467.73 179.5H1335.71C1327.99 179.5 1321.84 173.043 1322.22 165.336L1330.79 -8.66406C1331.14 -15.853 1337.07 -21.5 1344.27 -21.5Z" fill="var(--fill-0, white)" fill-opacity="0.01" stroke="var(--stroke-0, #6A6A6A)"/>
<path id="Rectangle 1008" d="M1333.27 179.5H1465.29C1473.01 179.5 1479.16 185.957 1478.78 193.664L1470.21 367.664C1469.86 374.853 1463.93 380.5 1456.73 380.5H1324.71C1316.99 380.5 1310.84 374.043 1311.22 366.336L1319.79 192.336C1320.14 185.147 1326.07 179.5 1333.27 179.5Z" fill="var(--fill-0, white)" fill-opacity="0.4" stroke="var(--stroke-0, #6A6A6A)"/>
<path id="Rectangle 1021" d="M1322.27 380.5H1454.29C1462.01 380.5 1468.16 386.957 1467.78 394.664L1459.21 568.664C1458.86 575.853 1452.93 581.5 1445.73 581.5H1313.71C1305.99 581.5 1299.84 575.043 1300.22 567.336L1308.79 393.336C1309.14 386.147 1315.07 380.5 1322.27 380.5Z" fill="var(--fill-0, white)" fill-opacity="0.01" stroke="var(--stroke-0, #6A6A6A)"/>
<path id="Rectangle 1034" d="M1311.27 581.5H1443.29C1451.01 581.5 1457.16 587.957 1456.78 595.664L1448.21 769.664C1447.86 776.853 1441.93 782.5 1434.73 782.5H1302.71C1294.99 782.5 1288.84 776.043 1289.22 768.336L1297.79 594.336C1298.14 587.147 1304.07 581.5 1311.27 581.5Z" fill="var(--fill-0, white)" fill-opacity="0.01" stroke="var(--stroke-0, #6A6A6A)"/>
<path id="Rectangle 1047" d="M1300.27 782.5H1432.29C1440.01 782.5 1446.16 788.957 1445.78 796.664L1437.21 970.664C1436.86 977.853 1430.93 983.5 1423.73 983.5H1291.71C1283.99 983.5 1277.84 977.043 1278.22 969.336L1286.79 795.336C1287.14 788.147 1293.07 782.5 1300.27 782.5Z" fill="var(--fill-0, white)" fill-opacity="0.01" stroke="var(--stroke-0, #6A6A6A)"/>
<path id="Rectangle 1060" d="M1289.27 983.5H1421.29C1429.01 983.5 1435.16 989.957 1434.78 997.664L1426.21 1171.66C1425.86 1178.85 1419.93 1184.5 1412.73 1184.5H1280.71C1272.99 1184.5 1266.84 1178.04 1267.22 1170.34L1275.79 996.336C1276.14 989.147 1282.07 983.5 1289.27 983.5Z" fill="var(--fill-0, white)" fill-opacity="0.01" stroke="var(--stroke-0, #6A6A6A)"/>
<path id="Rectangle 996" d="M1503.27 -21.5H1635.29C1643.01 -21.5 1649.16 -15.0431 1648.78 -7.33594L1640.21 166.664C1639.86 173.853 1633.93 179.5 1626.73 179.5H1494.71C1486.99 179.5 1480.84 173.043 1481.22 165.336L1489.79 -8.66406C1490.14 -15.853 1496.07 -21.5 1503.27 -21.5Z" fill="var(--fill-0, white)" fill-opacity="0.01" stroke="var(--stroke-0, #6A6A6A)"/>
<path id="Rectangle 1009" d="M1492.27 179.5H1624.29C1632.01 179.5 1638.16 185.957 1637.78 193.664L1629.21 367.664C1628.86 374.853 1622.93 380.5 1615.73 380.5H1483.71C1475.99 380.5 1469.84 374.043 1470.22 366.336L1478.79 192.336C1479.14 185.147 1485.07 179.5 1492.27 179.5Z" fill="var(--fill-0, white)" fill-opacity="0.01" stroke="var(--stroke-0, #6A6A6A)"/>
<path id="Rectangle 1022" d="M1481.27 380.5H1613.29C1621.01 380.5 1627.16 386.957 1626.78 394.664L1618.21 568.664C1617.86 575.853 1611.93 581.5 1604.73 581.5H1472.71C1464.99 581.5 1458.84 575.043 1459.22 567.336L1467.79 393.336C1468.14 386.147 1474.07 380.5 1481.27 380.5Z" fill="var(--fill-0, white)" fill-opacity="0.01" stroke="var(--stroke-0, #6A6A6A)"/>
<path id="Rectangle 1035" d="M1470.27 581.5H1602.29C1610.01 581.5 1616.16 587.957 1615.78 595.664L1607.21 769.664C1606.86 776.853 1600.93 782.5 1593.73 782.5H1461.71C1453.99 782.5 1447.84 776.043 1448.22 768.336L1456.79 594.336C1457.14 587.147 1463.07 581.5 1470.27 581.5Z" fill="var(--fill-0, white)" fill-opacity="0.4" stroke="var(--stroke-0, #6A6A6A)"/>
<path id="Rectangle 1048" d="M1459.27 782.5H1591.29C1599.01 782.5 1605.16 788.957 1604.78 796.664L1596.21 970.664C1595.86 977.853 1589.93 983.5 1582.73 983.5H1450.71C1442.99 983.5 1436.84 977.043 1437.22 969.336L1445.79 795.336C1446.14 788.147 1452.07 782.5 1459.27 782.5Z" fill="var(--fill-0, white)" fill-opacity="0.01" stroke="var(--stroke-0, #6A6A6A)"/>
<path id="Rectangle 1061" d="M1448.27 983.5H1580.29C1588.01 983.5 1594.16 989.957 1593.78 997.664L1585.21 1171.66C1584.86 1178.85 1578.93 1184.5 1571.73 1184.5H1439.71C1431.99 1184.5 1425.84 1178.04 1426.22 1170.34L1434.79 996.336C1435.14 989.147 1441.07 983.5 1448.27 983.5Z" fill="var(--fill-0, white)" fill-opacity="0.01" stroke="var(--stroke-0, #6A6A6A)"/>
<path id="Rectangle 997" d="M1662.27 -21.5H1794.29C1802.01 -21.5 1808.16 -15.0431 1807.78 -7.33594L1799.21 166.664C1798.86 173.853 1792.93 179.5 1785.73 179.5H1653.71C1645.99 179.5 1639.84 173.043 1640.22 165.336L1648.79 -8.66406C1649.14 -15.853 1655.07 -21.5 1662.27 -21.5Z" fill="var(--fill-0, white)" fill-opacity="0.4" stroke="var(--stroke-0, #6A6A6A)"/>
<path id="Rectangle 1010" d="M1651.27 179.5H1783.29C1791.01 179.5 1797.16 185.957 1796.78 193.664L1788.21 367.664C1787.86 374.853 1781.93 380.5 1774.73 380.5H1642.71C1634.99 380.5 1628.84 374.043 1629.22 366.336L1637.79 192.336C1638.14 185.147 1644.07 179.5 1651.27 179.5Z" fill="var(--fill-0, white)" fill-opacity="0.01" stroke="var(--stroke-0, #6A6A6A)"/>
<path id="Rectangle 1023" d="M1640.27 380.5H1772.29C1780.01 380.5 1786.16 386.957 1785.78 394.664L1777.21 568.664C1776.86 575.853 1770.93 581.5 1763.73 581.5H1631.71C1623.99 581.5 1617.84 575.043 1618.22 567.336L1626.79 393.336C1627.14 386.147 1633.07 380.5 1640.27 380.5Z" fill="var(--fill-0, white)" fill-opacity="0.01" stroke="var(--stroke-0, #6A6A6A)"/>
<path id="Rectangle 1036" d="M1629.27 581.5H1761.29C1769.01 581.5 1775.16 587.957 1774.78 595.664L1766.21 769.664C1765.86 776.853 1759.93 782.5 1752.73 782.5H1620.71C1612.99 782.5 1606.84 776.043 1607.22 768.336L1615.79 594.336C1616.14 587.147 1622.07 581.5 1629.27 581.5Z" fill="var(--fill-0, white)" fill-opacity="0.01" stroke="var(--stroke-0, #6A6A6A)"/>
<path id="Rectangle 1049" d="M1618.27 782.5H1750.29C1758.01 782.5 1764.16 788.957 1763.78 796.664L1755.21 970.664C1754.86 977.853 1748.93 983.5 1741.73 983.5H1609.71C1601.99 983.5 1595.84 977.043 1596.22 969.336L1604.79 795.336C1605.14 788.147 1611.07 782.5 1618.27 782.5Z" fill="var(--fill-0, white)" fill-opacity="0.01" stroke="var(--stroke-0, #6A6A6A)"/>
<path id="Rectangle 1062" d="M1607.27 983.5H1739.29C1747.01 983.5 1753.16 989.957 1752.78 997.664L1744.21 1171.66C1743.86 1178.85 1737.93 1184.5 1730.73 1184.5H1598.71C1590.99 1184.5 1584.84 1178.04 1585.22 1170.34L1593.79 996.336C1594.14 989.147 1600.07 983.5 1607.27 983.5Z" fill="var(--fill-0, white)" fill-opacity="0.01" stroke="var(--stroke-0, #6A6A6A)"/>
<path id="Rectangle 998" d="M1821.27 -21.5H1953.29C1961.01 -21.5 1967.16 -15.0431 1966.78 -7.33594L1958.21 166.664C1957.86 173.853 1951.93 179.5 1944.73 179.5H1812.71C1804.99 179.5 1798.84 173.043 1799.22 165.336L1807.79 -8.66406C1808.14 -15.853 1814.07 -21.5 1821.27 -21.5Z" fill="var(--fill-0, white)" fill-opacity="0.01" stroke="var(--stroke-0, #6A6A6A)"/>
<path id="Rectangle 1011" d="M1810.27 179.5H1942.29C1950.01 179.5 1956.16 185.957 1955.78 193.664L1947.21 367.664C1946.86 374.853 1940.93 380.5 1933.73 380.5H1801.71C1793.99 380.5 1787.84 374.043 1788.22 366.336L1796.79 192.336C1797.14 185.147 1803.07 179.5 1810.27 179.5Z" fill="var(--fill-0, white)" fill-opacity="0.01" stroke="var(--stroke-0, #6A6A6A)"/>
<path id="Rectangle 1024" d="M1799.27 380.5H1931.29C1939.01 380.5 1945.16 386.957 1944.78 394.664L1936.21 568.664C1935.86 575.853 1929.93 581.5 1922.73 581.5H1790.71C1782.99 581.5 1776.84 575.043 1777.22 567.336L1785.79 393.336C1786.14 386.147 1792.07 380.5 1799.27 380.5Z" fill="var(--fill-0, white)" fill-opacity="0.4" stroke="var(--stroke-0, #6A6A6A)"/>
<path id="Rectangle 1037" d="M1788.27 581.5H1920.29C1928.01 581.5 1934.16 587.957 1933.78 595.664L1925.21 769.664C1924.86 776.853 1918.93 782.5 1911.73 782.5H1779.71C1771.99 782.5 1765.84 776.043 1766.22 768.336L1774.79 594.336C1775.14 587.147 1781.07 581.5 1788.27 581.5Z" fill="var(--fill-0, white)" fill-opacity="0.01" stroke="var(--stroke-0, #6A6A6A)"/>
<path id="Rectangle 1050" d="M1777.27 782.5H1909.29C1917.01 782.5 1923.16 788.957 1922.78 796.664L1914.21 970.664C1913.86 977.853 1907.93 983.5 1900.73 983.5H1768.71C1760.99 983.5 1754.84 977.043 1755.22 969.336L1763.79 795.336C1764.14 788.147 1770.07 782.5 1777.27 782.5Z" fill="var(--fill-0, white)" fill-opacity="0.01" stroke="var(--stroke-0, #6A6A6A)"/>
<path id="Rectangle 1063" d="M1766.27 983.5H1898.29C1906.01 983.5 1912.16 989.957 1911.78 997.664L1903.21 1171.66C1902.86 1178.85 1896.93 1184.5 1889.73 1184.5H1757.71C1749.99 1184.5 1743.84 1178.04 1744.22 1170.34L1752.79 996.336C1753.14 989.147 1759.07 983.5 1766.27 983.5Z" fill="var(--fill-0, white)" fill-opacity="0.01" stroke="var(--stroke-0, #6A6A6A)"/>
</g>
</g>
</g>
</svg>
